<svg width="264" height="60" viewBox="0 0 264 60" fill="none" xmlns="http://www.w3.org/2000/svg">
<g clip-path="url(#clip0_12236_247798)">
<path d="M22.1306 43.2557C15.4484 37.7508 12.916 30.3673 14.1992 24.577C15.6406 18.0816 21.532 14.0473 29.5735 14.0473C37.615 14.0473 43.6146 18.3368 45.0239 25.5233C46.4673 32.8727 42.6577 40.2963 35.479 44.3848C43.0801 46.5687 51.4579 44.9635 59.0209 42.0563C59.5174 40.1316 59.7817 38.1144 59.7817 36.033V23.9602C59.7837 10.7242 49.0937 -0.00439453 35.9074 -0.00439453H23.8782C10.69 -0.00439453 0 10.7242 0 23.9582V36.031C0 38.2832 0.310289 40.4611 0.888827 42.5264C7.45894 43.5651 15.2102 44.208 22.1306 43.2537V43.2557Z" fill="white"/>
<path d="M29.0536 41.6015C29.8423 41.3122 30.605 40.9907 31.3357 40.6311C37.1732 37.7721 40.3481 32.0401 39.2351 26.3725C38.5865 23.0655 36.3824 19.1216 29.5741 19.1216C22.7657 19.1216 20.4996 23.1378 19.9671 25.5326C19.2825 28.6206 20.1773 32.2611 22.4234 35.5199C23.6766 37.3382 25.7465 39.6205 29.0536 41.5995V41.6015Z" fill="white"/>
<path d="M32.1325 48.7287C30.8073 48.2726 29.5541 47.7603 28.375 47.1978C20.4557 49.3033 11.2071 49.02 3.18359 47.9974C7.30943 55.1699 15.0306 59.9978 23.8769 59.9978H35.9061C44.5741 59.9978 52.1652 55.3608 56.3471 48.4233C48.5218 50.7077 40.0699 51.4571 32.1305 48.7267L32.1325 48.7287Z" fill="white"/>
<path d="M253.188 22.2365L252.716 23.9643H251.148L253.194 17.2358H255.178L257.266 23.9643H255.633L255.116 22.2365H253.188ZM254.892 21.1034L254.474 19.6729C254.357 19.2751 254.239 18.7708 254.137 18.377H254.117C254.019 18.7728 253.917 19.2831 253.811 19.6749L253.411 21.1034H254.894H254.892Z" fill="white"/>
<path d="M259.476 17.2358V23.9643H257.961V17.2358H259.476Z" fill="white"/>
<path d="M258.466 13.3467H252.648C250.213 13.3467 248.238 15.3283 248.238 17.7727V23.6112C248.238 26.0557 250.213 28.0373 252.648 28.0373H258.466C260.901 28.0373 262.876 26.0557 262.876 23.6112V17.7727C262.876 15.3283 260.901 13.3467 258.466 13.3467Z" stroke="white" stroke-width="0.217959" stroke-miterlimit="10"/>
<path d="M72.2266 13.6076C74.2184 13.2198 78.2081 12.8843 82.0017 12.8843C86.618 12.8843 89.4586 13.3424 91.9069 14.7708C94.2511 16.0225 95.9006 18.3149 95.9006 21.3989C95.9006 24.4829 94.173 27.1429 90.3995 28.5493V28.6759C94.223 29.6824 97.0677 32.6117 97.0677 36.9152C97.0677 39.9932 95.6584 42.3961 93.5824 44.0556C91.1262 46.0346 87.0824 47.1155 80.4122 47.1155C76.6787 47.1155 73.9221 46.8703 72.2266 46.6192V13.6076ZM79.7315 26.4799H82.1878C86.2016 26.4799 88.2935 24.8083 88.2935 22.309C88.2935 19.8097 86.3637 18.4093 82.9425 18.4093C81.287 18.4093 80.3521 18.5158 79.7315 18.6424V26.4779V26.4799ZM79.7315 41.3533C80.4582 41.4759 81.3571 41.49 82.6363 41.49C86.0755 41.49 89.1003 40.1559 89.1003 36.6159C89.1003 33.0758 86.0955 31.9045 82.32 31.9025H79.7315V41.3533Z" fill="white"/>
<path d="M123.888 38.9325C123.888 42.1069 123.982 44.7267 124.086 46.7579H117.526L117.178 43.3123H117.02C116.069 44.8212 113.801 47.3064 109.438 47.3064C104.496 47.3064 100.895 44.2044 100.895 36.6983V22.3453H108.468V35.4647C108.468 39.0369 109.611 41.1746 112.277 41.1746C114.333 41.1746 115.55 39.7441 116.037 38.5045C116.227 38.0605 116.313 37.502 116.313 36.8932V22.3433H123.886V38.9325H123.888Z" fill="white"/>
<path d="M134.612 22.3477L138.245 34.3481C138.66 35.7785 139.132 37.6028 139.458 38.8806H139.617C139.955 37.5646 140.339 35.7524 140.696 34.336L143.694 22.3477H151.762L146.125 38.4165C142.635 48.1104 140.305 51.98 137.559 54.4231C134.954 56.7134 132.17 57.5553 130.278 57.7622L128.658 51.3632C129.623 51.1804 130.79 50.7383 131.95 50.0713C133.103 49.4606 134.36 48.241 135.066 47.0275C135.325 46.6438 135.489 46.2601 135.489 45.9346C135.489 45.6513 135.425 45.2856 135.154 44.6809L126.242 22.3477H134.614H134.612Z" fill="white"/>
<path d="M154.23 13.5915C156.561 13.1997 159.84 12.8843 164.454 12.8843C169.068 12.8843 172.461 13.7904 174.704 15.6006C176.848 17.2702 178.255 20.0769 178.255 23.3738C178.255 26.6708 177.192 29.4755 175.196 31.3339C172.608 33.773 168.75 34.9001 164.318 34.9001C163.315 34.9001 162.418 34.8338 161.735 34.7273V46.7639H154.23V13.5915ZM161.735 28.8386C162.364 28.9833 163.145 29.0395 164.25 29.0395C168.272 29.0395 170.756 26.9962 170.756 23.5888C170.756 20.4948 168.646 18.6544 164.828 18.6544C163.333 18.6544 162.288 18.779 161.735 18.9056V28.8386Z" fill="white"/>
<path d="M194.789 46.7664L194.343 44.3394H194.183C192.595 46.2842 190.113 47.3149 187.234 47.3149C182.282 47.3149 179.371 43.7467 179.371 39.847C179.371 33.4862 185.04 30.4725 193.646 30.4826V30.1712C193.646 28.8733 192.952 27.0189 189.192 27.0269C186.712 27.0269 184.108 27.8727 182.488 28.8492L181.097 23.9911C182.79 23.0187 186.105 21.8032 190.551 21.8032C198.651 21.8032 201.211 26.607 201.211 32.339V40.8536C201.211 43.1821 201.336 45.3942 201.598 46.7664H194.789ZM193.873 35.2221C189.895 35.2 186.818 36.1623 186.818 39.0695C186.818 41.0364 188.099 41.9927 189.821 41.9927C191.671 41.9927 193.236 40.7531 193.732 39.188C193.849 38.7942 193.873 38.3221 193.873 37.8922V35.2221Z" fill="white"/>
<path d="M206.166 40.1524C207.543 41.0023 210.45 41.9686 212.65 41.9686C214.85 41.9686 215.909 41.1971 215.909 39.9515C215.909 38.7058 215.134 38.075 212.34 37.1287C207.283 35.4611 205.377 32.6986 205.407 29.8316C205.407 25.2468 209.263 21.8032 215.299 21.8032C218.145 21.8032 220.662 22.4743 222.149 23.2257L220.832 28.4534C219.737 27.8768 217.619 27.0751 215.561 27.0751C213.715 27.0751 212.658 27.8145 212.658 29.042C212.658 30.2696 213.623 30.8281 216.604 31.8608C221.22 33.4339 223.154 35.8168 223.182 39.3769C223.182 43.9315 219.641 47.2908 212.672 47.2908C209.501 47.2908 206.651 46.5715 204.797 45.573L206.166 40.1524Z" fill="white"/>
<path d="M226.74 40.1524C228.118 41.0023 231.024 41.9686 233.224 41.9686C235.424 41.9686 236.483 41.1971 236.483 39.9515C236.483 38.7058 235.709 38.075 232.914 37.1287C227.857 35.4611 225.952 32.6986 225.982 29.8316C225.982 25.2468 229.837 21.8032 235.873 21.8032C238.72 21.8032 241.236 22.4743 242.723 23.2257L241.406 28.4534C240.311 27.8768 238.193 27.0751 236.135 27.0751C234.289 27.0751 233.232 27.8145 233.232 29.042C233.232 30.2696 234.197 30.8281 237.178 31.8608C241.794 33.4339 243.728 35.8168 243.756 39.3769C243.756 43.9315 240.215 47.2908 233.246 47.2908C230.075 47.2908 227.225 46.5715 225.371 45.573L226.74 40.1524Z" fill="white"/>
</g>
<defs>
<clipPath id="clip0_12236_247798">
<rect width="263.077" height="60" fill="white"/>
</clipPath>
</defs>
</svg>
